<svg width="51" height="48" viewBox="0 0 51 48" fill="none" xmlns="http://www.w3.org/2000/svg">
<path d="M26.5003 33.7654C24.1933 32.0107 20.4526 32.0107 18.1456 33.7654C15.841 35.5209 15.841 38.3657 18.1456 40.1211C20.4518 41.8766 24.1925 41.8766 26.5003 40.1211C28.8057 38.3657 28.8057 35.5209 26.5003 33.7654Z" fill="#363636"/>
<path d="M17.6352 31.234C19.423 29.1244 18.818 26.4593 16.2851 25.283C13.7514 24.1075 10.2499 24.8642 8.46204 26.9739C6.67651 29.0835 7.28003 31.7486 9.81214 32.9249C12.3466 34.1018 15.8489 33.3444 17.6352 31.234Z" fill="#363636"/>
<path d="M15.2094 21.1706C16.9206 19.3543 16.5071 16.9283 14.2845 15.7521C12.0628 14.5751 8.87558 15.0934 7.16353 16.9097C5.45148 18.7261 5.86581 21.1513 8.08757 22.3276C10.3093 23.5045 13.4981 22.9862 15.2094 21.1706Z" fill="#363636"/>
<path d="M16.7862 14.7028C18.911 15.8775 21.9997 15.4305 23.6836 13.707C25.3683 11.9827 25.0126 9.63397 22.8886 8.45996C20.7645 7.2852 17.6758 7.73149 15.9919 9.45501C14.3064 11.1793 14.6621 13.528 16.7862 14.7028Z" fill="#363636"/>
<path d="M34.7244 11.705C36.6162 10.7865 36.8265 8.982 35.1934 7.67284C33.5619 6.36368 30.7014 6.0466 28.8088 6.96442C26.9154 7.88225 26.7059 9.68745 28.339 10.9966C29.9721 12.3058 32.8325 12.6229 34.7244 11.705Z" fill="#363636"/>
<path d="M41.6265 25.0179C39.9347 24.5456 38.4752 24.1372 38.0742 23.1919C37.842 22.6439 37.9327 21.8389 38.3267 20.8001C42.5216 17.0724 48.7975 11.0657 48.6208 8.62482C48.5505 7.64907 46.9135 6.25154 45.8401 6.25154L45.7557 6.25451C44.594 6.33026 42.8186 7.79016 40.9221 9.7669C40.763 9.31348 40.5586 8.87559 40.3116 8.45922C38.322 5.20303 33.9481 3.33545 28.3124 3.33545C23.9306 3.33545 19.0517 4.48273 14.2056 6.65328C7.98516 9.43942 3.33918 15.2493 2.3698 21.4558C1.64902 26.0642 2.51052 33.034 10.7018 40.0759C14.3338 43.1999 20.0531 44.9197 26.8036 44.9197H26.8059C32.2251 44.9197 37.7153 43.7739 41.8712 41.7786C46.5156 39.5471 49.0727 36.461 49.0727 33.0875C49.0727 27.0979 44.7683 25.8956 41.6265 25.0179ZM45.8401 7.36541C46.3334 7.36541 47.4248 8.33818 47.4506 8.70056C47.5999 10.7671 39.8495 18.0919 34.6688 22.4597L33.7855 21.7298L33.2077 21.2508C37.0634 15.787 43.6567 7.5065 45.8401 7.36541ZM31.3003 23.4295L32.4901 22.1338L33.8433 23.255L32.6558 24.5501L31.3003 23.4295ZM41.166 40.4524C37.2213 42.3474 31.9882 43.4345 26.8059 43.4345H26.8044C20.4409 43.4345 15.0952 41.8506 11.7509 38.9746C4.0709 32.3739 3.25084 25.9231 3.91455 21.6734C4.81044 15.9451 9.11167 10.577 14.874 7.9966C19.5121 5.91887 24.1597 4.8206 28.3124 4.8206C33.3023 4.8206 37.2815 6.45947 38.9583 9.20477C39.3195 9.79511 39.5619 10.4263 39.7026 11.0872C36.2019 15.0102 32.6464 20.0375 31.9671 21.0073L29.7962 23.3716C28.6564 23.3605 27.515 23.8335 27.1632 24.9763C25.867 29.1756 22.98 31.7798 22.98 31.7798C22.98 31.7798 30.298 30.406 31.6982 28.8451C32.4565 28.0001 32.8239 26.9902 32.8153 26.0694L35.0886 23.5937C35.392 23.3404 35.843 22.9595 36.3989 22.4828C36.3957 22.9461 36.463 23.3694 36.6224 23.7466C37.3065 25.3595 39.1897 25.8852 41.184 26.4422C44.293 27.311 47.5084 28.2088 47.5084 33.0875C47.5092 35.8721 45.2554 38.4875 41.166 40.4524Z" fill="#363636"/>
<path d="M42.9133 29.9249C40.6071 28.1701 36.8656 28.1701 34.5594 29.9249C32.2532 31.6796 32.254 34.5251 34.5594 36.2806C36.8648 38.036 40.6063 38.0353 42.9133 36.2806C45.2202 34.5259 45.2194 31.6796 42.9133 29.9249ZM41.7774 35.4155C40.0989 36.6934 37.3737 36.6934 35.6961 35.4155C34.0177 34.1375 34.0177 32.0664 35.6961 30.7892C37.3737 29.5112 40.0989 29.5112 41.7774 30.7892C43.4558 32.0672 43.4558 34.1375 41.7774 35.4155Z" fill="#363636"/>
</svg>
