<svg width="49" height="48" viewBox="0 0 49 48" fill="none" xmlns="http://www.w3.org/2000/svg">
<g clip-path="url(#clip0_5_122)">
<path d="M11.486 12.145C10.4881 12.145 9.58303 11.2722 9.58303 10.3084C9.58303 8.08173 15.3834 6.43159 21.9763 6.43159C22.5787 6.43159 22.9742 6.43159 22.9742 5.95041C22.9742 5.08488 20.9784 4.793 20.9784 3.33937C20.9784 1.79615 22.8707 0.825134 25.2727 0.825134C27.6716 0.825134 29.5747 1.79615 29.5747 3.33937C29.5747 4.79155 27.5712 4.98662 27.5712 5.95041C27.5712 6.24374 27.8709 6.43159 28.5692 6.43159C35.1696 6.43159 41.0628 7.98203 41.0628 10.3084C41.0652 10.5478 41.0178 10.7853 40.9234 11.0073C40.829 11.2292 40.6894 11.4313 40.5126 11.6019C40.3358 11.7725 40.1253 11.9083 39.8932 12.0015C39.661 12.0947 39.4118 12.1435 39.1598 12.145H11.486ZM41.3625 20.9419C43.7644 22.3941 44.6589 25.0066 44.2634 27.4312L41.4659 42.0311C40.8635 44.9427 38.2653 47.0654 35.1681 47.0654H15.5811C12.484 47.0654 9.88574 44.9369 9.28335 42.0383L6.48586 27.4312C6.27488 26.2046 6.446 24.9461 6.97816 23.8106C7.51032 22.6751 8.38031 21.7121 9.48111 21.0402C10.8821 20.0764 11.1833 18.4291 9.48111 17.8497C7.08825 16.9841 7.58721 14.178 9.98006 14.178H24.573C26.8715 14.178 29.6675 15.8181 29.6675 21.1384C29.6675 26.4588 27.0677 25.9776 27.0677 29.7489C27.0677 31.3962 28.4718 33.1359 30.1664 33.331C33.0643 33.6185 34.7604 32.5565 34.7604 28.6883C34.7604 24.7219 32.3691 22.8854 32.3691 19.5966C32.3691 15.6317 34.9673 14.0812 36.6635 14.0812H40.862C43.264 14.0812 43.7629 16.8888 41.3609 17.7529C39.6648 18.4306 39.9599 20.0778 41.3609 20.9433L41.3625 20.9419Z" fill="#3A3A3A"/>
</g>
<defs>
<clipPath id="clip0_5_122">
<rect width="48.6785" height="46.2388" fill="white" transform="translate(0.314331 0.826599)"/>
</clipPath>
</defs>
</svg>
