<svg width="44" height="42" viewBox="0 0 44 42" fill="none" xmlns="http://www.w3.org/2000/svg">
<g clip-path="url(#clip0_5_99)">
<path d="M16.5497 8.56084C16.5497 10.574 15.7077 12.5048 14.2091 13.9283C12.7104 15.3519 10.6778 16.1516 8.55839 16.1516C6.43897 16.1516 4.40636 15.3519 2.9077 13.9283C1.40904 12.5048 0.567108 10.574 0.567108 8.56084C0.567108 6.54764 1.40904 4.61689 2.9077 3.19335C4.40636 1.7698 6.43897 0.970062 8.55839 0.970062C10.6778 0.970062 12.7104 1.7698 14.2091 3.19335C15.7077 4.61689 16.5497 6.54764 16.5497 8.56084Z" fill="#3A3A3A"/>
<path d="M24.541 16.1516C22.4215 16.1516 20.3889 15.3519 18.8903 13.9283C17.3916 12.5048 16.5497 10.574 16.5497 8.56084C16.5497 6.54764 17.3916 4.61689 18.8903 3.19335C20.3889 1.7698 22.4215 0.970062 24.541 0.970062C26.6604 0.970062 28.693 1.7698 30.1917 3.19335C31.6903 4.61689 32.5323 6.54764 32.5323 8.56084C32.5323 10.574 31.6903 12.5048 30.1917 13.9283C28.693 15.3519 26.6604 16.1516 24.541 16.1516Z" fill="#3A3A3A"/>
<path d="M24.541 16.1516H25.8728C27.165 16.1515 28.4132 16.5974 29.385 17.4064C30.3567 18.2154 30.9858 19.3324 31.1551 20.5492L39.4394 17.0524C39.8449 16.8808 40.2891 16.8081 40.7317 16.8411C41.1742 16.874 41.6011 17.0115 41.9735 17.241C42.3459 17.4706 42.652 17.7849 42.864 18.1554C43.076 18.5259 43.1871 18.9408 43.1873 19.3625V38.2433C43.1869 38.6646 43.0758 39.0792 42.8639 39.4494C42.6521 39.8196 42.3463 40.1337 41.9742 40.3632C41.6022 40.5927 41.1758 40.7302 40.7336 40.7635C40.2914 40.7967 39.8474 40.7245 39.442 40.5534L31.1551 37.0566C30.9858 38.2734 30.3567 39.3904 29.385 40.1994C28.4132 41.0084 27.165 41.4543 25.8728 41.4542H5.89463C4.48168 41.4542 3.12661 40.921 2.1275 39.972C1.1284 39.023 0.567108 37.7358 0.567108 36.3937V21.2121C0.567108 19.87 1.1284 18.5828 2.1275 17.6338C3.12661 16.6848 4.48168 16.1516 5.89463 16.1516H24.541Z" fill="#3A3A3A"/>
</g>
<defs>
<clipPath id="clip0_5_99">
<rect width="42.6202" height="40.4841" fill="white" transform="translate(0.567108 0.970062)"/>
</clipPath>
</defs>
</svg>
