<svg width="56" height="53" viewBox="0 0 56 53" fill="none" xmlns="http://www.w3.org/2000/svg">
<path d="M28.2803 38.8242C35.6802 38.8242 41.6922 33.4329 41.948 26.6973C41.6922 19.9617 35.6802 14.5705 28.2803 14.5705C20.8813 14.5705 14.8676 19.9617 14.6151 26.6973C14.8667 33.4329 20.8804 38.8242 28.2803 38.8242Z" fill="#363636"/>
<path d="M28.2812 8.81593C17.8847 8.81593 9.45541 16.8219 9.45541 26.6973C9.45541 36.5719 17.8855 44.5787 28.2812 44.5787C38.6768 44.5787 47.106 36.5719 47.106 26.6973C47.106 16.8219 38.6768 8.81593 28.2812 8.81593ZM28.2803 39.702C20.7187 39.702 14.5886 34.0767 14.5886 27.1354C14.5886 26.9875 14.61 26.8436 14.6151 26.6973C14.61 26.551 14.5886 26.4064 14.5886 26.2592C14.5886 19.318 20.7195 13.6927 28.2803 13.6927C35.8419 13.6927 41.9711 19.318 41.9711 26.2592C41.9711 26.4064 41.9531 26.551 41.9489 26.6973C41.954 26.8436 41.9711 26.9875 41.9711 27.1354C41.9703 34.0767 35.8419 39.702 28.2803 39.702Z" fill="#363636"/>
<path d="M3.23637 6.71974C3.44174 5.95491 3.84818 6.7108 3.84818 6.7108C3.84818 6.7108 3.99022 14.6274 4.91435 14.7135C5.83849 14.7997 5.12656 6.56775 6.22012 6.41007C7.23666 6.25645 6.65651 14.8444 7.58235 14.7574C8.50477 14.6648 8.66051 6.75144 8.66051 6.75144C8.66051 6.75144 9.07123 5.99636 9.27403 6.75551C11.7794 16.1107 9.75235 19.9349 9.75235 19.9349C9.75235 19.9349 9.41008 20.7388 8.59719 20.7428C8.52103 20.7388 8.57836 42.9613 8.57323 45.9491C8.57494 47.4016 3.86701 47.3569 3.86957 45.9109C3.873 42.9231 3.96455 20.703 3.89097 20.7046C3.07551 20.7046 2.73409 19.9016 2.73409 19.9016C2.73409 19.9016 0.714694 16.0798 3.23637 6.71974Z" fill="#363636"/>
<path d="M47.8505 6.37756C48.9098 6.37512 53.3046 9.38488 53.3097 20.5705C53.3148 24.1476 51.2603 24.1468 51.2638 26.3844C51.2672 28.618 51.28 46.3839 51.28 46.3839C51.28 46.3839 49.0262 47.8527 47.3508 46.3157L47.3199 6.69536C47.3217 6.69617 47.3157 6.37674 47.8505 6.37756Z" fill="#363636"/>
</svg>
