<svg width="67" height="66" viewBox="0 0 67 66" fill="none" xmlns="http://www.w3.org/2000/svg">
<path d="M52.9114 41.2835V11.2053C52.9095 10.7946 52.8151 10.3896 52.6353 10.0204C52.4554 9.65114 52.1946 9.32718 51.8724 9.07253C51.5547 8.81556 51.1835 8.63305 50.786 8.53841C50.3885 8.44377 49.9749 8.43941 49.5755 8.52566L24.9661 13.9944C24.3586 14.1314 23.816 14.4717 23.4282 14.959C23.0404 15.4463 22.8305 16.0513 22.8333 16.6741V39.4788C20.9666 38.5975 18.8645 38.3453 16.8424 38.76C14.8202 39.1746 12.987 40.2338 11.6178 41.7785C10.2486 43.3233 9.41721 45.2704 9.24834 47.3277C9.07946 49.385 9.58222 51.4416 10.6812 53.189C11.7802 54.9364 13.4161 56.2803 15.3436 57.0192C17.271 57.758 19.3861 57.852 21.3715 57.2869C23.3569 56.7219 25.1056 55.5283 26.3551 53.8853C27.6047 52.2422 28.2879 50.2383 28.3021 48.1741C28.3303 47.7006 28.3303 47.2258 28.3021 46.7522V18.8616L47.4427 14.6233V34.01C45.575 33.1283 43.4716 32.8762 41.4484 33.2918C39.4252 33.7074 37.5915 34.7681 36.2226 36.3147C34.8537 37.8613 34.0235 39.8103 33.8567 41.869C33.69 43.9277 34.1956 45.9849 35.2976 47.7317C36.3997 49.4785 38.0388 50.8206 39.9687 51.5564C41.8985 52.2922 44.0151 52.3821 46.0004 51.8125C47.9857 51.2429 49.7326 50.0445 50.9788 48.3974C52.225 46.7503 52.9031 44.7434 52.9114 42.678C52.9374 42.2135 52.9374 41.748 52.9114 41.2835Z" fill="#363636"/>
</svg>
