<svg width="16" height="16" viewBox="0 0 16 16" fill="none" xmlns="http://www.w3.org/2000/svg">
<path d="M2.66667 4V13.7778C2.66254 13.9488 2.69214 14.119 2.75379 14.2785C2.81544 14.4381 2.90793 14.584 3.02597 14.7078C3.14402 14.8316 3.2853 14.931 3.44175 15.0002C3.5982 15.0694 3.76676 15.1071 3.93778 15.1111H12.04C12.2129 15.11 12.3839 15.0744 12.5429 15.0065C12.7019 14.9386 12.8458 14.8397 12.9662 14.7156C13.0866 14.5915 13.1811 14.4446 13.2441 14.2836C13.3071 14.1226 13.3375 13.9506 13.3333 13.7778V4H2.66667ZM6.66667 12.8889H5.77778V6.22222H6.66667V12.8889ZM10.2222 12.8889H9.33334V6.22222H10.2222V12.8889Z" fill="#F56552"/>
<path d="M13.6578 2.22222H10.2222V1.77778C10.2222 1.54203 10.1286 1.31594 9.96188 1.14924C9.79518 0.982542 9.56909 0.888891 9.33334 0.888891H6.57779C6.35777 0.911001 6.15389 1.01433 6.00596 1.17869C5.85803 1.34305 5.77668 1.55665 5.77779 1.77778V2.22222H2.22223C2.10436 2.22222 1.99131 2.26905 1.90796 2.3524C1.82461 2.43575 1.77779 2.5488 1.77779 2.66667C1.77779 2.78454 1.82461 2.89759 1.90796 2.98094C1.99131 3.06429 2.10436 3.11111 2.22223 3.11111H13.6578C13.7757 3.11111 13.8887 3.06429 13.9721 2.98094C14.0554 2.89759 14.1022 2.78454 14.1022 2.66667C14.1022 2.5488 14.0554 2.43575 13.9721 2.3524C13.8887 2.26905 13.7757 2.22222 13.6578 2.22222Z" fill="#F56552"/>
</svg>
